<mxfile host="Electron" modified="2024-02-22T10:39:37.771Z" agent="Mozilla/5.0 (Macintosh; Intel Mac OS X 10_15_7) AppleWebKit/537.36 (KHTML, like Gecko) draw.io/23.0.2 Chrome/120.0.6099.109 Electron/28.1.0 Safari/537.36" etag="z_4pgMkUS2etdIXSzCbY" version="23.0.2" type="device">
  <diagram name="Page-1" id="6gULVhWcurzz5zKnDaAR">
    <mxGraphModel dx="1365" dy="1311" grid="1" gridSize="10" guides="1" tooltips="1" connect="1" arrows="1" fold="1" page="1" pageScale="1" pageWidth="1169" pageHeight="827" math="0" shadow="0">
      <root>
        <mxCell id="0" />
        <mxCell id="1" parent="0" />
        <UserObject label="&lt;font style=&quot;&quot;&gt;&lt;span style=&quot;font-size: 20px;&quot;&gt;Issuer&lt;/span&gt;&lt;/font&gt;" linkTarget="_blank" id="r7VOtmBWi9sTdI5Oyx6i-1">
          <mxCell style="rounded=1;whiteSpace=wrap;html=1;fontSize=16;labelBackgroundColor=none;fillColor=none;" parent="1" vertex="1">
            <mxGeometry x="210" y="403" width="125.25" height="58" as="geometry" />
          </mxCell>
        </UserObject>
        <UserObject label="&lt;font style=&quot;&quot;&gt;&lt;span style=&quot;font-size: 20px;&quot;&gt;Registry&lt;/span&gt;&lt;/font&gt;" linkTarget="_blank" id="WkVDoU_EPi6P_C-XghKi-11">
          <mxCell style="rounded=1;whiteSpace=wrap;html=1;fontSize=16;labelBackgroundColor=none;fillColor=none;" parent="1" vertex="1">
            <mxGeometry x="530" y="593" width="125.25" height="58" as="geometry" />
          </mxCell>
        </UserObject>
        <mxCell id="WkVDoU_EPi6P_C-XghKi-12" value="" style="endArrow=classic;html=1;rounded=0;fontSize=12;startSize=8;endSize=8;curved=1;exitX=0.75;exitY=0;exitDx=0;exitDy=0;labelBackgroundColor=none;fontColor=default;" parent="1" source="r7VOtmBWi9sTdI5Oyx6i-1" edge="1">
          <mxGeometry width="50" height="50" relative="1" as="geometry">
            <mxPoint x="430" y="490" as="sourcePoint" />
            <mxPoint x="530" y="280" as="targetPoint" />
          </mxGeometry>
        </mxCell>
        <mxCell id="WkVDoU_EPi6P_C-XghKi-13" value="&amp;nbsp;&lt;b&gt;Issue&lt;/b&gt;&lt;br&gt;&amp;nbsp;&lt;font style=&quot;font-size: 12px;&quot;&gt;exactly once&lt;/font&gt;&amp;nbsp;&amp;nbsp;" style="edgeLabel;html=1;align=center;verticalAlign=middle;resizable=0;points=[];fontSize=16;labelBackgroundColor=default;" parent="WkVDoU_EPi6P_C-XghKi-12" vertex="1" connectable="0">
          <mxGeometry x="-0.0577" y="4" relative="1" as="geometry">
            <mxPoint as="offset" />
          </mxGeometry>
        </mxCell>
        <mxCell id="WkVDoU_EPi6P_C-XghKi-14" value="" style="endArrow=classic;html=1;rounded=0;fontSize=12;startSize=8;endSize=8;curved=1;exitX=1;exitY=0.5;exitDx=0;exitDy=0;entryX=0;entryY=0.25;entryDx=0;entryDy=0;labelBackgroundColor=none;fontColor=default;" parent="1" source="4crVNhUSypmRE79kbWuG-14" edge="1">
          <mxGeometry width="50" height="50" relative="1" as="geometry">
            <mxPoint x="670.25" y="273.5" as="sourcePoint" />
            <mxPoint x="810" y="402.5" as="targetPoint" />
          </mxGeometry>
        </mxCell>
        <mxCell id="WkVDoU_EPi6P_C-XghKi-15" value="&amp;nbsp;&lt;b&gt;Present&lt;/b&gt;&amp;nbsp;&lt;br&gt;&lt;font style=&quot;font-size: 12px;&quot;&gt;&amp;nbsp;repeatable&amp;nbsp;&lt;/font&gt;" style="edgeLabel;html=1;align=center;verticalAlign=middle;resizable=0;points=[];fontSize=16;labelBackgroundColor=default;" parent="WkVDoU_EPi6P_C-XghKi-14" vertex="1" connectable="0">
          <mxGeometry x="0.0141" relative="1" as="geometry">
            <mxPoint as="offset" />
          </mxGeometry>
        </mxCell>
        <mxCell id="WkVDoU_EPi6P_C-XghKi-16" value="" style="endArrow=classic;html=1;rounded=0;fontSize=12;startSize=8;endSize=8;curved=1;entryX=1;entryY=0.5;entryDx=0;entryDy=0;exitX=0;exitY=0.5;exitDx=0;exitDy=0;labelBackgroundColor=none;fontColor=default;" parent="1" target="r7VOtmBWi9sTdI5Oyx6i-1" edge="1">
          <mxGeometry width="50" height="50" relative="1" as="geometry">
            <mxPoint x="810" y="417" as="sourcePoint" />
            <mxPoint x="480" y="440" as="targetPoint" />
          </mxGeometry>
        </mxCell>
        <mxCell id="WkVDoU_EPi6P_C-XghKi-17" value="&lt;b&gt;&amp;nbsp;Check Status&amp;nbsp;&lt;br&gt;&lt;/b&gt;&amp;nbsp;&lt;font style=&quot;font-size: 12px;&quot;&gt;might NOT preserve privacy, repeatable&amp;nbsp;&lt;/font&gt;" style="edgeLabel;html=1;align=center;verticalAlign=middle;resizable=0;points=[];fontSize=16;labelBackgroundColor=default;" parent="WkVDoU_EPi6P_C-XghKi-16" vertex="1" connectable="0">
          <mxGeometry x="-0.0144" y="2" relative="1" as="geometry">
            <mxPoint x="1" y="-5" as="offset" />
          </mxGeometry>
        </mxCell>
        <mxCell id="WkVDoU_EPi6P_C-XghKi-18" value="" style="endArrow=classic;html=1;rounded=0;fontSize=12;startSize=8;endSize=8;curved=1;exitX=0.75;exitY=1;exitDx=0;exitDy=0;entryX=0;entryY=0.5;entryDx=0;entryDy=0;dashed=1;labelBackgroundColor=none;fontColor=default;" parent="1" source="r7VOtmBWi9sTdI5Oyx6i-1" target="WkVDoU_EPi6P_C-XghKi-11" edge="1">
          <mxGeometry width="50" height="50" relative="1" as="geometry">
            <mxPoint x="430" y="490" as="sourcePoint" />
            <mxPoint x="480" y="440" as="targetPoint" />
          </mxGeometry>
        </mxCell>
        <mxCell id="WkVDoU_EPi6P_C-XghKi-19" value="&lt;b&gt;&amp;nbsp;Revoke&amp;nbsp;&lt;br&gt;&lt;/b&gt;&amp;nbsp;&lt;font style=&quot;font-size: 12px;&quot;&gt;up to once&lt;/font&gt;&amp;nbsp;" style="edgeLabel;html=1;align=center;verticalAlign=middle;resizable=0;points=[];fontSize=16;labelBackgroundColor=default;" parent="WkVDoU_EPi6P_C-XghKi-18" vertex="1" connectable="0">
          <mxGeometry x="-0.0007" y="-2" relative="1" as="geometry">
            <mxPoint as="offset" />
          </mxGeometry>
        </mxCell>
        <mxCell id="WkVDoU_EPi6P_C-XghKi-20" value="" style="curved=1;endArrow=classic;html=1;rounded=0;fontSize=12;startSize=8;endSize=8;exitX=0;exitY=0.75;exitDx=0;exitDy=0;entryX=0.5;entryY=0;entryDx=0;entryDy=0;labelBackgroundColor=none;fontColor=default;" parent="1" target="WkVDoU_EPi6P_C-XghKi-11" edge="1">
          <mxGeometry width="50" height="50" relative="1" as="geometry">
            <mxPoint x="810" y="431.5" as="sourcePoint" />
            <mxPoint x="480" y="440" as="targetPoint" />
            <Array as="points">
              <mxPoint x="690" y="450" />
            </Array>
          </mxGeometry>
        </mxCell>
        <mxCell id="WkVDoU_EPi6P_C-XghKi-21" value="&lt;b&gt;&amp;nbsp;Check Status&amp;nbsp;&lt;br&gt;&lt;/b&gt;&amp;nbsp;&lt;font style=&quot;font-size: 12px;&quot;&gt;MIGHT preserve privacy, repeatable&lt;/font&gt;" style="edgeLabel;html=1;align=center;verticalAlign=middle;resizable=0;points=[];fontSize=16;labelBackgroundColor=default;" parent="WkVDoU_EPi6P_C-XghKi-20" vertex="1" connectable="0">
          <mxGeometry x="0.0976" y="18" relative="1" as="geometry">
            <mxPoint x="-1" as="offset" />
          </mxGeometry>
        </mxCell>
        <mxCell id="WkVDoU_EPi6P_C-XghKi-23" value="" style="curved=1;endArrow=classic;html=1;rounded=0;fontSize=12;startSize=8;endSize=8;exitX=0.25;exitY=1;exitDx=0;exitDy=0;entryX=1;entryY=0.5;entryDx=0;entryDy=0;labelBackgroundColor=none;fontColor=default;" parent="1" source="4crVNhUSypmRE79kbWuG-3" target="WkVDoU_EPi6P_C-XghKi-11" edge="1">
          <mxGeometry width="50" height="50" relative="1" as="geometry">
            <mxPoint x="871.3125" y="476" as="sourcePoint" />
            <mxPoint x="480" y="440" as="targetPoint" />
            <Array as="points">
              <mxPoint x="820" y="550" />
              <mxPoint x="740" y="600" />
            </Array>
          </mxGeometry>
        </mxCell>
        <mxCell id="WkVDoU_EPi6P_C-XghKi-24" value="&lt;b&gt;&amp;nbsp;Verify&amp;nbsp;&lt;br&gt;&lt;/b&gt;&amp;nbsp;&lt;font style=&quot;font-size: 12px;&quot;&gt;repeatable&lt;/font&gt;&amp;nbsp;" style="edgeLabel;html=1;align=center;verticalAlign=middle;resizable=0;points=[];fontSize=16;labelBackgroundColor=default;" parent="WkVDoU_EPi6P_C-XghKi-23" vertex="1" connectable="0">
          <mxGeometry x="-0.0198" y="-16" relative="1" as="geometry">
            <mxPoint x="12" y="6" as="offset" />
          </mxGeometry>
        </mxCell>
        <mxCell id="WkVDoU_EPi6P_C-XghKi-30" value="" style="shape=lineEllipse;perimeter=ellipsePerimeter;whiteSpace=wrap;html=1;backgroundOutline=1;fontSize=16;rotation=-35;strokeWidth=6;fillColor=none;labelBackgroundColor=none;" parent="1" vertex="1">
          <mxGeometry x="320" y="130" width="32.63" height="32.63" as="geometry" />
        </mxCell>
        <mxCell id="WkVDoU_EPi6P_C-XghKi-31" value="" style="endArrow=classic;html=1;rounded=0;fontSize=12;startSize=8;endSize=8;curved=1;entryX=1;entryY=1;entryDx=0;entryDy=0;exitX=0;exitY=0.5;exitDx=0;exitDy=0;targetPerimeterSpacing=-6;dashed=1;labelBackgroundColor=none;fontColor=default;" parent="1" target="WkVDoU_EPi6P_C-XghKi-30" edge="1">
          <mxGeometry width="50" height="50" relative="1" as="geometry">
            <mxPoint x="515" y="229" as="sourcePoint" />
            <mxPoint x="380" y="219" as="targetPoint" />
          </mxGeometry>
        </mxCell>
        <mxCell id="WkVDoU_EPi6P_C-XghKi-32" value="&amp;nbsp;&lt;b&gt;Delete&lt;/b&gt;&amp;nbsp;&lt;br&gt;&amp;nbsp;&lt;font style=&quot;font-size: 12px;&quot;&gt;up to once per Holder&lt;/font&gt;&amp;nbsp;" style="edgeLabel;html=1;align=center;verticalAlign=middle;resizable=0;points=[];fontSize=16;labelBackgroundColor=default;" parent="WkVDoU_EPi6P_C-XghKi-31" vertex="1" connectable="0">
          <mxGeometry x="0.0517" y="1" relative="1" as="geometry">
            <mxPoint as="offset" />
          </mxGeometry>
        </mxCell>
        <mxCell id="WkVDoU_EPi6P_C-XghKi-25" value="" style="curved=1;endArrow=classic;html=1;rounded=0;fontSize=12;startSize=8;endSize=8;entryX=1;entryY=0;entryDx=0;entryDy=0;labelBackgroundColor=none;fontColor=default;" parent="1" edge="1">
          <mxGeometry width="50" height="50" relative="1" as="geometry">
            <mxPoint x="590" y="208" as="sourcePoint" />
            <mxPoint x="670.25" y="228" as="targetPoint" />
            <Array as="points">
              <mxPoint x="620" y="108" />
              <mxPoint x="670" y="98" />
              <mxPoint x="710" y="138" />
            </Array>
          </mxGeometry>
        </mxCell>
        <mxCell id="WkVDoU_EPi6P_C-XghKi-27" value="&amp;nbsp;&lt;b&gt;Transfer&lt;/b&gt;&lt;br&gt;&amp;nbsp;&lt;font style=&quot;font-size: 12px;&quot;&gt;repeatable&lt;/font&gt;&amp;nbsp;" style="edgeLabel;html=1;align=center;verticalAlign=middle;resizable=0;points=[];fontSize=16;labelBackgroundColor=default;" parent="WkVDoU_EPi6P_C-XghKi-25" vertex="1" connectable="0">
          <mxGeometry x="0.335" y="-1" relative="1" as="geometry">
            <mxPoint x="-13" y="1" as="offset" />
          </mxGeometry>
        </mxCell>
        <mxCell id="4crVNhUSypmRE79kbWuG-12" value="" style="group" vertex="1" connectable="0" parent="1">
          <mxGeometry x="810" y="390" width="156.25" height="88" as="geometry" />
        </mxCell>
        <UserObject label="&lt;font style=&quot;&quot;&gt;&lt;span style=&quot;font-size: 20px;&quot;&gt;Verifiers&lt;/span&gt;&lt;/font&gt;" linkTarget="_blank" id="4crVNhUSypmRE79kbWuG-3">
          <mxCell style="rounded=1;whiteSpace=wrap;html=1;fontSize=16;labelBackgroundColor=none;fillColor=none;" vertex="1" parent="4crVNhUSypmRE79kbWuG-12">
            <mxGeometry x="31" y="30" width="125.25" height="58" as="geometry" />
          </mxCell>
        </UserObject>
        <mxCell id="4crVNhUSypmRE79kbWuG-9" value="" style="curved=1;endArrow=none;html=1;rounded=0;fontSize=12;startSize=8;endSize=8;endFill=0;arcSize=20;exitX=-0.008;exitY=0.845;exitDx=0;exitDy=0;exitPerimeter=0;" edge="1" parent="4crVNhUSypmRE79kbWuG-12" source="4crVNhUSypmRE79kbWuG-3">
          <mxGeometry width="50" height="50" relative="1" as="geometry">
            <mxPoint x="30" y="79" as="sourcePoint" />
            <mxPoint x="150" y="30" as="targetPoint" />
            <Array as="points">
              <mxPoint x="20" y="80" />
              <mxPoint x="20" y="69" />
              <mxPoint x="20" y="40" />
              <mxPoint x="20" y="20" />
              <mxPoint x="30" y="20" />
              <mxPoint x="140" y="20" />
              <mxPoint x="150" y="20" />
            </Array>
          </mxGeometry>
        </mxCell>
        <mxCell id="4crVNhUSypmRE79kbWuG-10" value="" style="curved=1;endArrow=none;html=1;rounded=0;fontSize=12;startSize=8;endSize=8;endFill=0;arcSize=20;" edge="1" parent="4crVNhUSypmRE79kbWuG-12">
          <mxGeometry width="50" height="50" relative="1" as="geometry">
            <mxPoint x="20" y="69" as="sourcePoint" />
            <mxPoint x="140" y="20" as="targetPoint" />
            <Array as="points">
              <mxPoint x="10" y="70" />
              <mxPoint x="10" y="59" />
              <mxPoint x="10" y="30" />
              <mxPoint x="10" y="10" />
              <mxPoint x="20" y="10" />
              <mxPoint x="130" y="10" />
              <mxPoint x="140" y="10" />
            </Array>
          </mxGeometry>
        </mxCell>
        <mxCell id="4crVNhUSypmRE79kbWuG-11" value="" style="curved=1;endArrow=none;html=1;rounded=0;fontSize=12;startSize=8;endSize=8;endFill=0;arcSize=20;" edge="1" parent="4crVNhUSypmRE79kbWuG-12">
          <mxGeometry width="50" height="50" relative="1" as="geometry">
            <mxPoint x="10" y="59" as="sourcePoint" />
            <mxPoint x="130" y="10" as="targetPoint" />
            <Array as="points">
              <mxPoint y="60" />
              <mxPoint y="49" />
              <mxPoint y="20" />
              <mxPoint />
              <mxPoint x="10" />
              <mxPoint x="120" />
              <mxPoint x="130" />
            </Array>
          </mxGeometry>
        </mxCell>
        <mxCell id="4crVNhUSypmRE79kbWuG-13" value="" style="group" vertex="1" connectable="0" parent="1">
          <mxGeometry x="520" y="210" width="156.25" height="88" as="geometry" />
        </mxCell>
        <UserObject label="&lt;font style=&quot;&quot;&gt;&lt;span style=&quot;font-size: 20px;&quot;&gt;Holders&lt;/span&gt;&lt;/font&gt;" linkTarget="_blank" id="4crVNhUSypmRE79kbWuG-14">
          <mxCell style="rounded=1;whiteSpace=wrap;html=1;fontSize=16;labelBackgroundColor=none;fillColor=none;" vertex="1" parent="4crVNhUSypmRE79kbWuG-13">
            <mxGeometry x="31" y="30" width="125.25" height="58" as="geometry" />
          </mxCell>
        </UserObject>
        <mxCell id="4crVNhUSypmRE79kbWuG-15" value="" style="curved=1;endArrow=none;html=1;rounded=0;fontSize=12;startSize=8;endSize=8;endFill=0;arcSize=20;exitX=-0.008;exitY=0.845;exitDx=0;exitDy=0;exitPerimeter=0;" edge="1" parent="4crVNhUSypmRE79kbWuG-13" source="4crVNhUSypmRE79kbWuG-14">
          <mxGeometry width="50" height="50" relative="1" as="geometry">
            <mxPoint x="30" y="79" as="sourcePoint" />
            <mxPoint x="150" y="30" as="targetPoint" />
            <Array as="points">
              <mxPoint x="20" y="80" />
              <mxPoint x="20" y="69" />
              <mxPoint x="20" y="40" />
              <mxPoint x="20" y="20" />
              <mxPoint x="30" y="20" />
              <mxPoint x="140" y="20" />
              <mxPoint x="150" y="20" />
            </Array>
          </mxGeometry>
        </mxCell>
        <mxCell id="4crVNhUSypmRE79kbWuG-16" value="" style="curved=1;endArrow=none;html=1;rounded=0;fontSize=12;startSize=8;endSize=8;endFill=0;arcSize=20;" edge="1" parent="4crVNhUSypmRE79kbWuG-13">
          <mxGeometry width="50" height="50" relative="1" as="geometry">
            <mxPoint x="20" y="69" as="sourcePoint" />
            <mxPoint x="140" y="20" as="targetPoint" />
            <Array as="points">
              <mxPoint x="10" y="70" />
              <mxPoint x="10" y="59" />
              <mxPoint x="10" y="30" />
              <mxPoint x="10" y="10" />
              <mxPoint x="20" y="10" />
              <mxPoint x="130" y="10" />
              <mxPoint x="140" y="10" />
            </Array>
          </mxGeometry>
        </mxCell>
        <mxCell id="4crVNhUSypmRE79kbWuG-17" value="" style="curved=1;endArrow=none;html=1;rounded=0;fontSize=12;startSize=8;endSize=8;endFill=0;arcSize=20;" edge="1" parent="4crVNhUSypmRE79kbWuG-13">
          <mxGeometry width="50" height="50" relative="1" as="geometry">
            <mxPoint x="10" y="59" as="sourcePoint" />
            <mxPoint x="130" y="10" as="targetPoint" />
            <Array as="points">
              <mxPoint y="60" />
              <mxPoint y="49" />
              <mxPoint y="20" />
              <mxPoint />
              <mxPoint x="10" />
              <mxPoint x="120" />
              <mxPoint x="130" />
            </Array>
          </mxGeometry>
        </mxCell>
        <mxCell id="WkVDoU_EPi6P_C-XghKi-28" value="" style="curved=1;endArrow=classic;html=1;rounded=0;fontSize=12;startSize=8;endSize=8;entryX=1;entryY=0;entryDx=0;entryDy=0;labelBackgroundColor=none;fontColor=default;" parent="1" edge="1">
          <mxGeometry width="50" height="50" relative="1" as="geometry">
            <mxPoint x="880" y="388" as="sourcePoint" />
            <mxPoint x="965.25" y="418" as="targetPoint" />
            <Array as="points">
              <mxPoint x="920" y="310" />
              <mxPoint x="980" y="290" />
              <mxPoint x="1000" y="360" />
            </Array>
          </mxGeometry>
        </mxCell>
        <mxCell id="WkVDoU_EPi6P_C-XghKi-29" value="&lt;b&gt;&amp;nbsp;Verify and Validate&amp;nbsp;&lt;br&gt;&lt;/b&gt;&lt;font style=&quot;font-size: 12px;&quot;&gt;&amp;nbsp;repeatable&amp;nbsp;&lt;/font&gt;" style="edgeLabel;html=1;align=center;verticalAlign=middle;resizable=0;points=[];fontSize=16;labelBackgroundColor=default;" parent="WkVDoU_EPi6P_C-XghKi-28" vertex="1" connectable="0">
          <mxGeometry x="0.3015" y="-2" relative="1" as="geometry">
            <mxPoint x="8" y="18" as="offset" />
          </mxGeometry>
        </mxCell>
      </root>
    </mxGraphModel>
  </diagram>
</mxfile>
